G04 EAGLE Gerber X2 export*
%TF.Part,Single*%
%TF.FileFunction,Copper,L1,Top,Mixed*%
%TF.FilePolarity,Positive*%
%TF.GenerationSoftware,Autodesk,EAGLE,9.0.1*%
%TF.CreationDate,2018-07-06T12:17:37Z*%
G75*
%MOMM*%
%FSLAX34Y34*%
%LPD*%
%AMOC8*
5,1,8,0,0,1.08239X$1,22.5*%
G01*
%ADD10C,1.422400*%
%ADD11P,1.539592X8X22.500000*%
%ADD12C,1.524000*%
%ADD13P,1.429621X8X202.500000*%
%ADD14C,1.981200*%
%ADD15P,1.649562X8X22.500000*%
%ADD16P,2.336880X8X22.500000*%
%ADD17R,0.600000X2.200000*%
%ADD18P,1.429621X8X292.500000*%
%ADD19P,1.429621X8X22.500000*%
%ADD20P,1.429621X8X112.500000*%
%ADD21P,1.649562X8X202.500000*%
%ADD22P,1.732040X8X22.500000*%
%ADD23C,1.600200*%
%ADD24P,2.268148X8X202.500000*%
%ADD25P,1.649562X8X203.300000*%
%ADD26P,1.429621X8X215.700000*%
%ADD27C,1.422400*%
%ADD28C,0.756400*%
%ADD29C,1.270000*%
%ADD30C,0.508000*%
%ADD31C,2.540000*%


D10*
X68580Y91440D03*
D11*
X68580Y66040D03*
X93980Y91440D03*
X93980Y66040D03*
X119380Y91440D03*
X119380Y66040D03*
X144780Y91440D03*
X144780Y66040D03*
X170180Y91440D03*
X170180Y66040D03*
X195580Y91440D03*
X195580Y66040D03*
X220980Y91440D03*
X220980Y66040D03*
X246380Y91440D03*
X246380Y66040D03*
X271780Y91440D03*
X271780Y66040D03*
X297180Y91440D03*
X297180Y66040D03*
X322580Y91440D03*
X322580Y66040D03*
X347980Y91440D03*
X347980Y66040D03*
X373380Y91440D03*
X373380Y66040D03*
X398780Y91440D03*
X398780Y66040D03*
X424180Y91440D03*
X424180Y66040D03*
X449580Y91440D03*
X449580Y66040D03*
X474980Y91440D03*
X474980Y66040D03*
X500380Y91440D03*
X500380Y66040D03*
X525780Y91440D03*
X525780Y66040D03*
X551180Y91440D03*
X551180Y66040D03*
D12*
X35560Y375920D02*
X35560Y391160D01*
X60960Y391160D02*
X60960Y375920D01*
X86360Y375920D02*
X86360Y391160D01*
X111760Y391160D02*
X111760Y375920D01*
X35560Y355600D02*
X35560Y340360D01*
X60960Y340360D02*
X60960Y355600D01*
X86360Y355600D02*
X86360Y340360D01*
X111760Y340360D02*
X111760Y355600D01*
X35560Y320040D02*
X35560Y304800D01*
X60960Y304800D02*
X60960Y320040D01*
X86360Y320040D02*
X86360Y304800D01*
X111760Y304800D02*
X111760Y320040D01*
X137160Y320040D02*
X137160Y304800D01*
X35560Y284480D02*
X35560Y269240D01*
X60960Y269240D02*
X60960Y284480D01*
X86360Y284480D02*
X86360Y269240D01*
X111760Y269240D02*
X111760Y284480D01*
X137160Y284480D02*
X137160Y269240D01*
X583946Y213614D02*
X583946Y198374D01*
X558546Y198374D02*
X558546Y213614D01*
X533146Y213614D02*
X533146Y198374D01*
D13*
X583057Y155575D03*
X532257Y155575D03*
X566420Y276860D03*
X515620Y276860D03*
D14*
X655574Y59474D02*
X675386Y59474D01*
X675386Y109766D02*
X655574Y109766D01*
X655574Y173774D02*
X675386Y173774D01*
X675386Y224066D02*
X655574Y224066D01*
D15*
X393700Y134620D03*
X393700Y160020D03*
X419100Y134620D03*
X419100Y160020D03*
X444500Y134620D03*
X444500Y160020D03*
D12*
X175260Y139700D02*
X175260Y124460D01*
X200660Y124460D02*
X200660Y139700D01*
X226060Y139700D02*
X226060Y124460D01*
D16*
X43688Y195580D03*
X108712Y195580D03*
D12*
X175260Y172720D02*
X175260Y157480D01*
X200660Y157480D02*
X200660Y172720D01*
X226060Y172720D02*
X226060Y157480D01*
X175260Y190500D02*
X175260Y205740D01*
X200660Y205740D02*
X200660Y190500D01*
X226060Y190500D02*
X226060Y205740D01*
X175260Y223520D02*
X175260Y238760D01*
X200660Y238760D02*
X200660Y223520D01*
X226060Y223520D02*
X226060Y238760D01*
X292100Y137160D02*
X292100Y121920D01*
X317500Y121920D02*
X317500Y137160D01*
X342900Y137160D02*
X342900Y121920D01*
X292100Y154940D02*
X292100Y170180D01*
X317500Y170180D02*
X317500Y154940D01*
X342900Y154940D02*
X342900Y170180D01*
X292100Y187960D02*
X292100Y203200D01*
X317500Y203200D02*
X317500Y187960D01*
X342900Y187960D02*
X342900Y203200D01*
X292100Y220980D02*
X292100Y236220D01*
X317500Y236220D02*
X317500Y220980D01*
X342900Y220980D02*
X342900Y236220D01*
X660400Y345440D02*
X675640Y345440D01*
X675640Y370840D02*
X660400Y370840D01*
X660400Y396240D02*
X675640Y396240D01*
D14*
X672846Y462534D02*
X672846Y482346D01*
X622554Y482346D02*
X622554Y462534D01*
D12*
X607060Y345440D02*
X591820Y345440D01*
X591820Y370840D02*
X607060Y370840D01*
X607060Y396240D02*
X591820Y396240D01*
D14*
X568706Y462534D02*
X568706Y482346D01*
X518414Y482346D02*
X518414Y462534D01*
D12*
X523240Y345440D02*
X538480Y345440D01*
X538480Y370840D02*
X523240Y370840D01*
X523240Y396240D02*
X538480Y396240D01*
D14*
X467106Y462534D02*
X467106Y482346D01*
X416814Y482346D02*
X416814Y462534D01*
D17*
X430530Y320640D03*
X430530Y268640D03*
X443230Y320640D03*
X417830Y320640D03*
X405130Y320640D03*
X443230Y268640D03*
X417830Y268640D03*
X405130Y268640D03*
D14*
X83566Y497586D02*
X63754Y497586D01*
X63754Y447294D02*
X83566Y447294D01*
D18*
X401320Y243840D03*
X401320Y218440D03*
X444500Y243840D03*
X444500Y218440D03*
D12*
X147320Y421640D02*
X147320Y436880D01*
X172720Y436880D02*
X172720Y421640D01*
X198120Y421640D02*
X198120Y436880D01*
D19*
X142240Y398780D03*
X167640Y398780D03*
D20*
X177800Y353060D03*
X177800Y378460D03*
D13*
X231140Y353060D03*
X205740Y353060D03*
D21*
X236220Y396240D03*
X185420Y396240D03*
D22*
X215900Y314960D03*
D23*
X190500Y314960D03*
D24*
X231140Y269240D03*
X180340Y269240D03*
D12*
X292100Y424180D02*
X292100Y439420D01*
X317500Y439420D02*
X317500Y424180D01*
X342900Y424180D02*
X342900Y439420D01*
D19*
X281940Y388620D03*
X307340Y388620D03*
D20*
X312420Y347980D03*
X312420Y373380D03*
D13*
X368300Y347980D03*
X342900Y347980D03*
D25*
X373378Y391515D03*
X322582Y390805D03*
D22*
X353060Y309880D03*
D23*
X327660Y309880D03*
D24*
X370840Y266700D03*
X320040Y266700D03*
D12*
X393700Y193040D02*
X393700Y177800D01*
X419100Y177800D02*
X419100Y193040D01*
X444500Y193040D02*
X444500Y177800D01*
D26*
X118582Y132292D03*
X69124Y120692D03*
D27*
X449580Y373888D02*
X449580Y388112D01*
X474980Y388112D02*
X474980Y373888D01*
X474980Y355092D02*
X474980Y340868D01*
X449580Y340868D02*
X449580Y355092D01*
X474980Y409448D02*
X474980Y423672D01*
X449580Y423672D02*
X449580Y409448D01*
X703180Y289652D02*
X703180Y275428D01*
X677780Y275428D02*
X677780Y289652D01*
X652380Y289652D02*
X652380Y275428D01*
D28*
X266700Y297180D03*
D29*
X266700Y218440D01*
D28*
X266700Y218440D03*
X467360Y274320D03*
X467360Y210820D03*
D29*
X467360Y228268D02*
X467360Y274320D01*
X467360Y228268D02*
X468630Y226998D01*
X468630Y210820D01*
D28*
X360680Y114300D03*
D30*
X360680Y55880D01*
X345440Y40640D01*
D28*
X345440Y40640D03*
X182880Y101600D03*
D30*
X182880Y55880D01*
D28*
X182880Y55880D03*
D30*
X396240Y266700D02*
X403190Y266700D01*
X405130Y268640D01*
X396240Y266700D02*
X353060Y309880D01*
D29*
X86360Y347980D02*
X86360Y383540D01*
X86360Y347980D02*
X86360Y312420D01*
X86360Y276860D01*
D30*
X525780Y91440D02*
X525780Y66040D01*
X419100Y185420D02*
X393700Y185420D01*
X419100Y185420D02*
X444500Y185420D01*
D28*
X518160Y29238D03*
D30*
X382865Y29238D01*
X376487Y22860D01*
X70504Y22860D01*
D28*
X38100Y220980D03*
D30*
X37973Y55391D02*
X70504Y22860D01*
X86360Y383540D02*
X86360Y408940D01*
X177981Y449580D02*
X185420Y442141D01*
X185420Y441960D01*
X198120Y429260D01*
X177981Y449580D02*
X127000Y449580D01*
X86360Y408940D01*
X322761Y452120D02*
X330200Y444681D01*
X330200Y444500D01*
X342900Y431800D01*
X264160Y452120D02*
X220980Y452120D01*
X264160Y452120D02*
X322761Y452120D01*
X220980Y452120D02*
X198120Y429260D01*
X274320Y396240D02*
X281940Y388620D01*
X274320Y396240D02*
X274320Y441960D01*
X264160Y452120D01*
X142240Y398780D02*
X127000Y414020D01*
X127000Y449580D01*
X513080Y104140D02*
X525780Y91440D01*
X513080Y104140D02*
X472440Y104140D01*
X462280Y114300D01*
X462280Y167640D02*
X444500Y185420D01*
X462280Y167640D02*
X462280Y114300D01*
X37973Y168068D02*
X37973Y55391D01*
X37973Y168068D02*
X20193Y185848D01*
X20193Y205312D01*
X33956Y219075D01*
X36195Y219075D01*
X38100Y220980D01*
D29*
X60960Y347980D02*
X60960Y383540D01*
X60960Y347980D02*
X60960Y312420D01*
X60960Y276860D01*
D28*
X208280Y40640D03*
D30*
X205740Y38100D01*
X78740Y38100D01*
X55880Y60960D01*
X55880Y162560D01*
X60960Y167640D01*
X60960Y276860D01*
D29*
X35560Y347980D02*
X35560Y383540D01*
X35560Y347980D02*
X35560Y312420D01*
X35560Y276860D01*
D30*
X48260Y55880D02*
X73660Y30480D01*
X48260Y264160D02*
X35560Y276860D01*
X27813Y202156D02*
X27813Y189004D01*
X27813Y202156D02*
X37112Y211455D01*
X48260Y168557D02*
X48260Y55880D01*
X41275Y211455D02*
X37112Y211455D01*
X41275Y211455D02*
X48260Y218440D01*
X27813Y189004D02*
X48260Y168557D01*
X48260Y218440D02*
X48260Y264160D01*
X263622Y66040D02*
X271780Y66040D01*
X228062Y30480D02*
X73660Y30480D01*
X228062Y30480D02*
X263622Y66040D01*
X551180Y66040D02*
X551180Y91440D01*
X444500Y243840D02*
X443230Y245110D01*
X443230Y268640D01*
X444500Y243840D02*
X444500Y234964D01*
X457200Y222264D02*
X457200Y183496D01*
X457200Y222264D02*
X444500Y234964D01*
X528320Y114300D02*
X551180Y91440D01*
X528320Y114300D02*
X480060Y114300D01*
X469900Y124460D01*
X469900Y170796D01*
X457200Y183496D01*
X386588Y86390D02*
X393730Y79248D01*
X410972Y79248D02*
X424180Y66040D01*
X386588Y103632D02*
X381000Y109220D01*
X393730Y79248D02*
X410972Y79248D01*
X386588Y86390D02*
X386588Y103632D01*
X381000Y198301D02*
X388439Y205740D01*
X381000Y198301D02*
X381000Y109220D01*
X388439Y205740D02*
X426720Y205740D01*
X430530Y209550D01*
X430530Y268640D01*
X297180Y95396D02*
X297180Y91440D01*
X297180Y95396D02*
X279400Y113176D01*
X279400Y149860D01*
X292100Y162560D01*
D31*
X703180Y97174D02*
X703180Y282540D01*
X703180Y97174D02*
X665480Y59474D01*
X583057Y141897D01*
X583057Y155575D01*
X583057Y205105D01*
X583946Y205994D01*
D29*
X342900Y195580D02*
X342900Y228600D01*
X342900Y195580D02*
X342900Y162560D01*
X342900Y129540D01*
X226060Y132080D02*
X226060Y165100D01*
X226060Y198120D01*
X226060Y231140D01*
X566420Y276860D02*
X646700Y276860D01*
X652380Y282540D01*
X629920Y209334D02*
X665480Y173774D01*
X629920Y209334D02*
X629920Y248920D01*
X652380Y271380D01*
X652380Y282540D01*
X533146Y243586D02*
X533146Y205994D01*
X533146Y243586D02*
X566420Y276860D01*
D30*
X106680Y53340D02*
X93980Y66040D01*
X106680Y53340D02*
X149860Y53340D01*
X157480Y60960D01*
X157480Y111760D01*
X175260Y129540D01*
X175260Y132080D01*
X142367Y271653D02*
X137160Y276860D01*
X107950Y105410D02*
X93980Y91440D01*
X107950Y105410D02*
X118801Y105410D01*
X147320Y133929D01*
X147320Y266700D02*
X137160Y276860D01*
X147320Y266700D02*
X147320Y133929D01*
X132588Y97644D02*
X132588Y79248D01*
X132588Y97644D02*
X162560Y127616D01*
X162560Y152400D02*
X175260Y165100D01*
X132588Y79248D02*
X119380Y66040D01*
X162560Y127616D02*
X162560Y152400D01*
X233680Y78740D02*
X246380Y66040D01*
X233680Y78740D02*
X233680Y99060D01*
X229108Y103632D02*
X195580Y103632D01*
X229108Y103632D02*
X233680Y99060D01*
X195580Y103632D02*
X187960Y111252D01*
X187960Y185420D02*
X175260Y198120D01*
X187960Y185420D02*
X187960Y111252D01*
X241300Y96520D02*
X246380Y91440D01*
X241300Y96520D02*
X241300Y102216D01*
X220799Y111760D02*
X213360Y119199D01*
X231756Y111760D02*
X241300Y102216D01*
X231756Y111760D02*
X220799Y111760D01*
X213360Y244021D02*
X205921Y251460D01*
X195399Y251460D01*
X187960Y244021D01*
X187960Y243840D01*
X213360Y244021D02*
X213360Y119199D01*
X175260Y231140D02*
X187960Y243840D01*
X177800Y353060D02*
X205740Y353060D01*
X241300Y121920D02*
X271780Y91440D01*
X241300Y121920D02*
X241300Y241481D01*
X231321Y251460D01*
X231140Y269240D02*
X190500Y309880D01*
X190500Y314960D01*
X177800Y327660D01*
X177800Y353060D01*
X231321Y269059D02*
X231321Y251460D01*
X231321Y269059D02*
X231140Y269240D01*
X297180Y73660D02*
X297180Y66040D01*
X297180Y73660D02*
X309880Y86360D01*
X309880Y95982D01*
X292100Y113762D01*
X292100Y129540D01*
X322580Y66040D02*
X309880Y53340D01*
X289560Y53340D01*
X283972Y58928D01*
X283972Y97827D02*
X271780Y110019D01*
X271780Y175260D02*
X292100Y195580D01*
X283972Y97827D02*
X283972Y58928D01*
X271780Y110019D02*
X271780Y175260D01*
X436372Y79248D02*
X449580Y66040D01*
X436372Y79248D02*
X436372Y96490D01*
X419100Y113762D02*
X419100Y134620D01*
X419100Y113762D02*
X436372Y96490D01*
X424180Y91440D02*
X393700Y121920D01*
X393700Y134620D01*
X322580Y91440D02*
X317500Y96520D01*
X292100Y221161D02*
X292100Y228600D01*
X292100Y221161D02*
X304800Y208461D01*
X304800Y111913D01*
X317500Y99213D02*
X317500Y96520D01*
X317500Y99213D02*
X304800Y111913D01*
X444500Y96520D02*
X449580Y91440D01*
X444500Y96520D02*
X444500Y134620D01*
X124968Y97028D02*
X119380Y91440D01*
X124968Y97028D02*
X124968Y100801D01*
X154940Y130773D01*
X154940Y294640D01*
X137160Y312420D01*
X220980Y66040D02*
X203200Y48260D01*
X203200Y48093D01*
X200827Y45720D02*
X88900Y45720D01*
X200827Y45720D02*
X203200Y48093D01*
X88900Y45720D02*
X81280Y53340D01*
X88930Y103632D02*
X89922Y103632D01*
X118582Y132292D01*
X81280Y95982D02*
X81280Y53340D01*
X81280Y95982D02*
X88930Y103632D01*
X330200Y101062D02*
X334772Y96490D01*
X334772Y79248D02*
X347980Y66040D01*
X334772Y79248D02*
X334772Y96490D01*
X330200Y101062D02*
X330200Y241481D01*
X342900Y347980D02*
X312420Y347980D01*
X342900Y325120D02*
X327660Y309880D01*
X342900Y325120D02*
X342900Y347980D01*
X327660Y309880D02*
X370840Y266700D01*
X337639Y248920D02*
X330200Y241481D01*
X353060Y248920D02*
X370840Y266700D01*
X353060Y248920D02*
X337639Y248920D01*
X379194Y38100D02*
X378460Y37366D01*
D28*
X378460Y37366D03*
D30*
X390029Y36858D02*
X397371Y36858D01*
X399121Y38608D01*
X562543Y38608D01*
X578612Y54677D01*
X578612Y103341D01*
X544793Y137160D01*
X502920Y137160D01*
X389521Y37366D02*
X378460Y37366D01*
X389521Y37366D02*
X390029Y36858D01*
X497840Y142240D02*
X502920Y137160D01*
X617220Y294640D02*
X668020Y345440D01*
X617220Y294640D02*
X559055Y294640D01*
X497840Y233425D01*
X497840Y142240D01*
D28*
X393700Y45720D03*
D30*
X490528Y132388D02*
X493376Y129540D01*
X490528Y132388D02*
X490220Y132696D01*
X570992Y57834D02*
X559386Y46228D01*
X541636Y129540D02*
X493376Y129540D01*
X570992Y100184D02*
X570992Y57834D01*
X570992Y100184D02*
X541636Y129540D01*
X394208Y46228D02*
X393700Y45720D01*
X394208Y46228D02*
X559386Y46228D01*
X490528Y132388D02*
X490528Y138776D01*
X490220Y139084D01*
X510780Y288544D02*
X542183Y288544D01*
X490220Y267984D02*
X490220Y139084D01*
X490220Y267984D02*
X510780Y288544D01*
X555899Y302260D02*
X556260Y302260D01*
X599440Y345440D01*
X555899Y302260D02*
X542183Y288544D01*
D28*
X411480Y58420D03*
D30*
X414558Y58420D01*
X419130Y53848D01*
X556230Y53848D02*
X563372Y60990D01*
X551180Y108682D02*
X551180Y109220D01*
X563372Y96490D02*
X563372Y60990D01*
X563372Y96490D02*
X551180Y108682D01*
X556230Y53848D02*
X419130Y53848D01*
X538480Y121920D02*
X551180Y109220D01*
X538480Y121920D02*
X490220Y121920D01*
X482600Y129540D01*
X537464Y296164D02*
X553720Y312420D01*
X494350Y282890D02*
X482600Y271140D01*
X494350Y282890D02*
X507624Y296164D01*
X537464Y296164D01*
X482600Y271140D02*
X482600Y129540D01*
X553720Y312420D02*
X553720Y322580D01*
X530860Y345440D01*
D29*
X622554Y404095D02*
X622554Y472440D01*
X622554Y404095D02*
X623570Y403079D01*
X623570Y402590D01*
X655320Y370840D02*
X668020Y370840D01*
X655320Y370840D02*
X623570Y402590D01*
X599440Y370840D02*
X584200Y370840D01*
X563880Y391160D01*
X563880Y436880D01*
X528320Y472440D01*
X518414Y472440D01*
D30*
X443230Y320640D02*
X430530Y320640D01*
D29*
X408940Y353060D02*
X408940Y420333D01*
X346673Y482600D01*
X99060Y482600D01*
X84074Y497586D02*
X73660Y497586D01*
X84074Y497586D02*
X99060Y482600D01*
X408940Y353060D02*
X421470Y340530D01*
X424512Y340530D01*
X430530Y334512D01*
X430530Y320640D01*
X433578Y349596D02*
X433578Y361720D01*
X433578Y349596D02*
X424512Y340530D01*
X449580Y377722D02*
X449580Y381000D01*
X449580Y377722D02*
X433578Y361720D01*
D30*
X417830Y320640D02*
X405130Y320640D01*
D29*
X393700Y414020D02*
X340360Y467360D01*
X405130Y320640D02*
X405130Y306070D01*
X454660Y292100D02*
X464820Y302260D01*
X464820Y327660D01*
X449580Y342900D02*
X449580Y347980D01*
X405130Y306070D02*
X419100Y292100D01*
X454660Y292100D01*
X464820Y327660D02*
X449580Y342900D01*
X405130Y320640D02*
X393700Y332070D01*
X393700Y414020D01*
X340360Y467360D02*
X96520Y467360D01*
X76454Y447294D01*
X73660Y447294D01*
D30*
X401320Y243840D02*
X411480Y243840D01*
X417830Y250190D01*
X417830Y268640D01*
X177800Y378460D02*
X177800Y388620D01*
X160020Y416379D02*
X160020Y416560D01*
X167640Y408759D02*
X167640Y398780D01*
X167640Y408759D02*
X160020Y416379D01*
X160020Y416560D02*
X147320Y429260D01*
X167640Y398780D02*
X177800Y388620D01*
X185420Y396240D01*
X307340Y388620D02*
X320397Y388620D01*
X322582Y390805D01*
X292100Y403860D02*
X292100Y431800D01*
X292100Y403860D02*
X307340Y388620D01*
X307340Y378460D01*
X312420Y373380D01*
X69124Y156246D02*
X69124Y120692D01*
X108458Y195580D02*
X108712Y195580D01*
X108458Y195580D02*
X69124Y156246D01*
D29*
X518160Y370840D02*
X530860Y370840D01*
X497840Y370840D02*
X474980Y347980D01*
X497840Y370840D02*
X530860Y370840D01*
X520700Y370840D02*
X474980Y416560D01*
X520700Y370840D02*
X530860Y370840D01*
X474980Y381000D02*
X474980Y391160D01*
X458978Y407162D02*
X449580Y416560D01*
X458978Y407162D02*
X458978Y402820D01*
X468352Y393446D01*
X472694Y393446D01*
X474980Y391160D01*
X449580Y416560D02*
X416814Y449326D01*
X416814Y472440D01*
D31*
X568706Y472440D02*
X579628Y472440D01*
X597408Y492762D02*
X612138Y507492D01*
X597408Y492762D02*
X597408Y490220D01*
X579628Y472440D01*
X612138Y507492D02*
X637794Y507492D01*
X533654Y507492D02*
X507998Y507492D01*
X472946Y472440D02*
X467106Y472440D01*
X472946Y472440D02*
X507998Y507492D01*
X637794Y507492D02*
X672846Y472440D01*
X568706Y472440D02*
X533654Y507492D01*
D29*
X677780Y312020D02*
X677780Y282540D01*
D31*
X677780Y312020D02*
X701040Y335280D01*
X701040Y444246D02*
X672846Y472440D01*
X701040Y444246D02*
X701040Y335280D01*
M02*
