M48
;GenerationSoftware,Autodesk,EAGLE,9.0.1*%
;CreationDate,2018-07-06T12:17:36Z*%
FMAT,2
ICI,OFF
METRIC,TZ,000.000
T7C0.350
T6C0.813
T5C0.914
T4C1.016
T3C1.321
T2C1.397
%
G90
M71
T2
X18034Y26924
X23114Y26924
X37084Y26670
X32004Y26670
T3
X62255Y47244
X66548Y22407
X66548Y17377
X66548Y10977
X66548Y5947
X67285Y47244
X7366Y44729
X7366Y49759
X41681Y47244
X46711Y47244
X51841Y47244
X56871Y47244
T4
X11176Y27686
X13716Y27686
X58395Y20599
X55855Y20599
X8636Y38354
X8636Y27686
X6096Y27686
X3556Y27686
X13716Y31242
X11176Y31242
X8636Y31242
X6096Y31242
X3556Y31242
X11176Y34798
X8636Y34798
X6096Y34798
X3556Y34798
X11176Y38354
X34290Y16256
X44450Y16002
X17526Y19812
X22606Y16510
X20066Y16510
X17526Y16510
X20066Y19812
X22606Y19812
X22606Y13208
X20066Y13208
X17526Y13208
X53315Y20599
X44450Y13462
X41910Y16002
X41910Y13462
X39370Y16002
X39370Y13462
X17526Y23114
X20066Y23114
X22606Y23114
X29210Y12954
X18542Y39624
X59944Y39624
X53086Y34544
X53086Y37084
X53086Y39624
X14732Y42926
X17272Y42926
X19812Y42926
X23622Y39624
X3556Y38354
X29210Y43180
X31750Y43180
X34290Y43180
X37338Y39151
X32258Y39081
X39370Y18542
X41910Y18542
X44450Y18542
X59944Y34544
X6096Y38354
X31750Y12954
X34290Y12954
X29210Y16256
X31750Y16256
X29210Y19558
X31750Y19558
X29210Y22860
X59944Y37084
X66802Y39624
X66802Y37084
X66802Y34544
X34290Y22860
X31750Y22860
X34290Y19558
T5
X65238Y28254
X44958Y38100
X47498Y38100
X47498Y34798
X44958Y34798
X47498Y41656
X44958Y41656
X70318Y28254
X67778Y28254
X19558Y6604
X32258Y6604
X32258Y9144
X29718Y9144
X27178Y6604
X27178Y9144
X24638Y6604
X24638Y9144
X22098Y6604
X22098Y9144
X6858Y9144
X6858Y6604
X29718Y6604
X19558Y9144
X17018Y6604
X10871Y19558
X9398Y9144
X17018Y9144
X14478Y6604
X9398Y6604
X11938Y9144
X14478Y9144
X11938Y6604
X50038Y9144
X4369Y19558
X55118Y6604
X55118Y9144
X52578Y6604
X52578Y9144
X50038Y6604
X34798Y9144
X47498Y6604
X47498Y9144
X44958Y9144
X34798Y6604
X37338Y9144
X37338Y6604
X39878Y9144
X39878Y6604
X42418Y9144
X42418Y6604
X44958Y6604
T6
X36830Y34798
X34290Y34798
X31242Y37338
X31242Y34798
X30734Y38862
X28194Y38862
X14224Y39878
X35306Y30988
X32766Y30988
X11858Y13229
X6912Y12069
X21590Y31496
X51562Y27686
X56642Y27686
X19050Y31496
X53226Y15557
X58306Y15557
X40132Y24384
X40132Y21844
X44450Y24384
X44450Y21844
X16764Y39878
X17780Y35306
X17780Y37846
X23114Y35306
X20574Y35306
T7
X26670Y21844
X46736Y27432
X46736Y21082
X36068Y11430
X26670Y29718
X34544Y4064
X18288Y10160
X18288Y5588
X51816Y2924
X3810Y22098
X20828Y4064
X37846Y3737
X39370Y4572
X41148Y5842
M30